<?xml version="1.0" encoding="UTF-8"?>
<svg xmlns="http://www.w3.org/2000/svg" xmlns:svg="http://www.w3.org/2000/svg" xmlns:sodipodi="http://sodipodi.sourceforge.net/DTD/sodipodi-0.dtd" xmlns:inkscape="http://www.inkscape.org/namespaces/inkscape" version="1.1" viewBox="118 590 360 80"><metadata></metadata>
  <defs>
    <style>
      .cls-1, .cls-2 {
        isolation: isolate;
      }

      .cls-3 {
        fill: #f1fffc;
      }

      .cls-3, .cls-4 {
        display: none;
      }

      .cls-5 {
        fill: #cae3ec;
      }

      .cls-2 {
        font-family: AdobeClean-Bold, 'Adobe Clean';
        font-size: 20px;
        font-weight: 700;
        letter-spacing: 0em;
      }

      .cls-2, .cls-6 {
        fill: #55a8a3;
      }

      .cls-7 {
        fill: #898888;
      }

      .cls-8 {
        fill: #437e84;
      }

      .cls-9 {
        fill: #2b2c2c;
      }

      .cls-10 {
        fill: #c8c8c8;
      }
      .cls-11 {
        fill: #55a8a3;
      }
    </style>
  </defs>
  <!-- Generator: Adobe Illustrator 28.6.0, SVG Export Plug-In . SVG Version: 1.2.0 Build 709)  -->
  <g>
    <g id="Layer_1">
      <g id="svg1" inkscape:version="1.3.2 (091e20e, 2023-11-25, custom)" sodipodi:docname="Studio Boris.svg">
        <circle class="cls-3" cx="296.1" cy="133.3" r="80.6"/>
        <sodipodi:namedview id="namedview1" bordercolor="#000000" borderopacity="0.25" inkscape:current-layer="layer1" inkscape:cx="396.5" inkscape:cy="555.5" inkscape:deskcolor="#d1d1d1" inkscape:document-units="mm" inkscape:pagecheckerboard="0" inkscape:pageopacity="0.0" inkscape:showpageshadow="2" inkscape:window-height="1111" inkscape:window-maximized="1" inkscape:window-width="1920" inkscape:window-x="-9" inkscape:window-y="-9" inkscape:zoom="1" pagecolor="#ffffff" showgrid="false"/>
       
        <g>
          <g>
            <g id="Generative_Object-2">
              <g>
                <g id="Background-2" class="cls-4">
                  <path class="cls-5" d="M123.8,683.4h-1.4c0-35.2-8.8-69.9-13.3-104.9,36.1-4.6,72.6-4.6,108.7,0,0,.5-.1.9-.2,1.4v.5c-1,7.9-2.3,15.7-3.6,23.6v.2c-1.1,6.4-2.2,12.9-3.2,19.3v.2c-.8,4.7-1.5,9.4-2.2,14.1v.2c-.3,2.2-.6,4.4-.9,6.5v.2c-.3,2.3-.6,4.6-.9,6.8v.2c-.4,3.1-.7,6.2-1,9.3v.2c-.6,7.2-1,14.4-1.1,21.6v.7h-80.9Z"/>
                  <path class="cls-5" d="M214,603.9c1.3-7.8,2.5-15.7,3.6-23.6-.8,7.9-2.3,15.7-3.6,23.6Z"/>
                  <path class="cls-5" d="M204.6,682.7c0-7.2.4-14.4,1.1-21.6-.6,4.8-.9,18.3-1.1,21.6Z"/>
                  <path class="cls-5" d="M210.8,623.4c1.1-6.4,2.2-12.9,3.2-19.3-1.1,6.4-2.2,12.9-3.2,19.3Z"/>
                  <path class="cls-5" d="M144.8,683.4h-17.3,17.3Z"/>
                  <path class="cls-5" d="M160.4,683.4h-15.3,15.3Z"/>
                  <path class="cls-5" d="M208.5,637.7c.7-4.7,1.4-9.4,2.2-14.1-.8,4.7-1.5,9.4-2.2,14.1Z"/>
                  <path class="cls-5" d="M172,683.4h-11.5,11.5Z"/>
                  <path class="cls-5" d="M205.7,660.9c.3-3.1.6-6.2,1-9.3-.4,3.1-.7,6.2-1,9.3Z"/>
                  <path class="cls-5" d="M202.2,683.4h-7.8,7.8Z"/>
                  <path class="cls-5" d="M185,683.4h-7.6,7.6Z"/>
                  <path class="cls-5" d="M206.7,651.4c.3-2.3.6-4.6.9-6.8-.3,2.3-.6,4.6-.9,6.8Z"/>
                  <path class="cls-5" d="M207.6,644.4c.3-2.2.6-4.4.9-6.5-.3,2.2-.6,4.4-.9,6.5Z"/>
                  <path class="cls-5" d="M127.4,683.4h-3.7,3.7Z"/>
                  <path class="cls-5" d="M189,683.4h-3,3Z"/>
                  <path class="cls-5" d="M193.3,683.4h-2.3,2.3Z"/>
                  <path class="cls-5" d="M176.6,683.4h-1.7,1.7Z"/>
                  <path class="cls-5" d="M204.1,683.4h-1.7,1.7Z"/>
                  <path class="cls-5" d="M190.7,683.4h-1.2,1.2Z"/>
                  <path class="cls-5" d="M174.5,683.4h-.8.8Z"/>
                  <path class="cls-5" d="M173.4,683.4h-.7.7Z"/>
                  <path class="cls-5" d="M185.7,683.4h-.6.6Z"/>
                  <path class="cls-5" d="M217.6,580.1v-.3.3Z"/>
                </g>
                <g>
                  <g>
                    <path class="cls-8 cls-11" d="M200.7,602.2c-1.6,13.6-3.3,27.1-4.5,40.6-11.4,6.6-21.9,13.3-32,20v-40.6c11.2-6.9,23.3-13.7,36.5-20Z"/>
                    <path class="cls-5" d="M122.2,597.8c10.8,4.9,24.6,11.4,33.2,17.2.7.4,5.2,3.5,5.3,3.8q0,0-.2,0c-.3,0-3.9-2.2-4.5-2.5-9.9-5.6-20.2-11.4-31.6-16.4,1.8,14.6,3.7,29,5.1,43.4,12,6.9,22.9,14,33.5,21,.8,0,1,0,1.7-.4,10.4-6.9,21-13.8,32.8-20.6,1.4-14.4,3.2-28.8,5.1-43.4-13.1,5.8-24.9,12.5-36.1,18.9,10.6-8.4,24.5-14.7,38.4-21.1-2.1,15.6-4.3,31-5.8,46.4-12.2,7-23.2,14.2-33.9,21.3-1.1.5-2,.5-3.2,0-10.5-7-21.3-14-33.2-20.8-.2-.2-.5-.3-.7-.5-1.6-15.4-3.8-30.8-5.8-46.4h0Z"/>
                    <path class="cls-5" d="M199.8,594.6c.4.6.8,1.1,1.1,1.7-10.3,5.2-23.8,11.1-31.9,17.2-2,1.5-4.8,4.3-5.1,4.4h-.3c8.1-10.3,22.5-17.2,36.2-23.3h0Z"/>
                    <path class="cls-8" d="M201.6,597.3c.3,0,.6.2.8.3-13.2,6.2-25.9,12.3-36.5,20,9.6-8.5,22.7-14.1,35.6-20.3h0Z"/>
                  </g>
                  <g>
                    <path class="cls-8" d="M126.2,602.2c13.3,6.2,25.4,13.1,36.7,20v40.6c-10.2-6.7-20.6-13.5-32.1-20.1-1.3-13.4-2.9-26.9-4.6-40.5Z"/>
                    <path class="cls-5" d="M127.2,594.6c13.2,5.7,28.9,13.4,36.2,23.3-9.9-8.9-23.3-14.9-36.9-21.3-.8-.2.3-1.2.7-2Z"/>
                    <path class="cls-8 cls-11" d="M125.1,597.3h.7c12.7,6.2,25.8,11.8,35.3,20.1-10.6-7.6-23.1-13.7-36.3-19.8-.2,0,.3-.4.3-.4h0Z"/>
                  </g>
                </g>
              </g>
            </g>
            <g id="text3-3" class="cls-1">
              <g class="cls-1">
                <g>
                  <path class="cls-8" d="M243.1,639.8c-.7,1.1-1.7,2-3.1,2.7-1.4.7-3,1-4.9,1-2.9,0-5.2-.7-7.1-2.1-1.9-1.4-2.8-4.9-2.8-4.9-.1-.5.2-1,.7-1h5.3c.6,0,1.1.4,1.2,1,0,0,.1.5.6,1,.5.4,1,.6,1.7.6s1.1-.2,1.4-.5c.3-.3.5-.7.5-1.3s-.3-1.3-1-1.7-1.8-.9-3.2-1.4c-1.6-.5-2.9-1.1-3.9-1.6s-1.9-1.3-2.6-2.3c-.7-1-1.1-2.4-1.1-4s.4-2.9,1.2-4,1.9-2,3.3-2.5c1.4-.6,2.9-.9,4.7-.9,2.9,0,5.1.7,6.8,2s2.5,4.7,2.5,4.7c.1.5-.2,1-.8,1h-5.4c-.6,0-1.1-.4-1.2-1,0,0,0-.4-.5-.8-.4-.4-.9-.6-1.5-.6s-1,0-1.3.4c-.3.3-.5.7-.5,1.3s.3,1.3,1,1.7,1.7.8,3.1,1.3c1.6.6,2.9,1.1,3.9,1.7,1,.5,1.9,1.3,2.7,2.4.7,1,1.1,2.4,1.1,4s-.4,2.6-1.1,3.8h.3Z"/>
                  <path class="cls-8" d="M264.9,618.4c.6,0,1,.5,1,1v3.5c0,.5-.4,1-1,1h-4.7c-.6,0-1,.5-1,1v17.3c0,.5-.4,1-1,1h-4.9c-.6,0-1-.5-1-1v-17.3c0-.5-.4-1-1-1h-4.6c-.6,0-1-.5-1-1v-3.5c0-.5.4-1,1-1h18.2Z"/>
                  <path class="cls-8" d="M274,618.4c.6,0,1,.5,1,1v12.2c0,.5,0,1.4.1,2,0,0,.2,1.5.8,2.3.6.8,1.6,1.1,2.8,1.1s2.2-.4,2.9-1.2.8-2.2.8-2.2c0-.5.1-1.4.1-2v-12.2c0-.5.4-1,1-1h4.9c.6,0,1,.5,1,1v12.2c0,.5,0,1.4-.1,2,0,0-.4,3.3-1.3,5s-2.2,2.9-3.9,3.7c-1.6.8-3.5,1.2-5.5,1.2s-3.9-.4-5.5-1.2-2.8-2-3.7-3.7c-.9-1.6-1.2-5-1.2-5,0-.5-.1-1.4-.1-2v-12.2c0-.5.4-1,1-1h4.9Z"/>
                  <path class="cls-8" d="M314.3,637.2c-1.1,1.9-2.6,3.4-4.5,4.4-1.9,1.1-5.9,1.5-5.9,1.5-.5,0-1.4,0-2,0h-7.9c-.6,0-1-.5-1-1v-22.9c0-.5.4-1,1-1h7.9c.5,0,1.4,0,2,0,0,0,3.9.4,5.9,1.5,2,1,3.5,2.5,4.5,4.4s1.6,4,1.6,6.4-.5,4.6-1.6,6.4h0ZM307.2,635.4c1.2-1.1,1.8-2.7,1.8-4.7s-.6-3.5-1.8-4.7c-1.2-1.1-3.8-1.5-3.8-1.5-.5,0-1.4-.2-2-.2h-.4c-.5,0-1,.5-1,1v10.6c0,.5.5,1,1,1h.4c.5,0,1.4,0,2,0,0,0,2.7-.4,3.8-1.5h0Z"/>
                  <path class="cls-8" d="M324.9,618.4c.5,0,1,.5,1,1v22.9c0,.5-.5,1-1,1h-4.9c-.5,0-1-.5-1-1v-22.9c0-.5.5-1,1-1h4.9Z"/>
                  <path class="cls-8" d="M348.1,619.6c1.9,1.1,3.5,2.6,4.6,4.5s1.7,4.1,1.7,6.6-.6,4.6-1.7,6.6c-1.1,1.9-2.7,3.5-4.6,4.5-1.9,1.1-4.1,1.6-6.4,1.6s-4.4-.5-6.4-1.6c-1.9-1.1-3.5-2.6-4.6-4.5s-1.7-4.1-1.7-6.6.6-4.6,1.7-6.6c1.1-1.9,2.7-3.5,4.6-4.5,1.9-1.1,4.1-1.6,6.4-1.6s4.5.5,6.4,1.6ZM337.6,626.1c-1,1.1-1.5,2.7-1.5,4.7s.5,3.5,1.5,4.6,2.4,1.7,4.1,1.7,3.1-.6,4.1-1.7c1-1.1,1.5-2.7,1.5-4.6s-.5-3.5-1.5-4.7-2.4-1.7-4.1-1.7-3.1.6-4.1,1.7Z"/>
                  <path class="cls-8" d="M383.2,632.6c.9,1.1,1.3,2.4,1.3,3.8,0,2.2-.7,3.8-2.1,5s-5.2,1.6-5.2,1.6c-.5,0-1.4,0-2,0h-10.3c-.5,0-1-.5-1-1v-22.9c0-.5.5-1,1-1h10c.5,0,1.4,0,2,0,0,0,3.5.4,4.9,1.5s2.1,2.7,2.1,4.8-.4,2.7-1.2,3.7-2.1,1.6-2.1,1.6c-.5.2-.5.6,0,.8,0,0,1.7.7,2.6,1.8h0ZM370.9,627.3c0,.5.5,1,1,1h1.5c.5,0,1.4,0,2-.3,0,0,1.6-.5,1.6-1.9s-1.7-2-1.7-2c-.5-.2-1.4-.3-2-.3h-1.4c-.5,0-1,.5-1,1v2.4h0ZM377.5,635.4c0-1.5-1.7-2-1.7-2-.5-.2-1.4-.3-2-.3h-1.9c-.5,0-1,.5-1,1v2.6c0,.5.5,1,1,1h1.9c.5,0,1.4,0,2-.3,0,0,1.7-.5,1.7-2Z"/>
                  <path class="cls-8" d="M405.8,619.6c1.9,1.1,3.5,2.6,4.6,4.5s1.7,4.1,1.7,6.6-.6,4.6-1.7,6.6c-1.1,1.9-2.7,3.5-4.6,4.5-1.9,1.1-4.1,1.6-6.4,1.6s-4.4-.5-6.4-1.6c-1.9-1.1-3.5-2.6-4.6-4.5s-1.7-4.1-1.7-6.6.6-4.6,1.7-6.6c1.1-1.9,2.7-3.5,4.6-4.5,1.9-1.1,4.1-1.6,6.4-1.6s4.5.5,6.4,1.6ZM395.3,626.1c-1,1.1-1.5,2.7-1.5,4.7s.5,3.5,1.5,4.6,2.4,1.7,4.1,1.7,3.1-.6,4.1-1.7c1-1.1,1.5-2.7,1.5-4.6s-.5-3.5-1.5-4.7-2.4-1.7-4.1-1.7-3.1.6-4.1,1.7Z"/>
                  <path class="cls-8" d="M428.8,643.2c-.5,0-1.2-.4-1.5-.9l-4.1-7.4c-.3-.5-.6-.9-.8-.9s-.4.5-.4,1v7.2c0,.5-.5,1-1,1h-4.9c-.5,0-1-.5-1-1v-22.9c0-.5.5-1,1-1h10.9s2.7.3,4.1.9c1.4.7,2.4,1.6,3.1,2.9.7,1.2,1.1,2.6,1.1,4.1s-.5,3.2-1.4,4.5-3.2,2.3-3.2,2.3c-.5.2-.7.8-.4,1.3l4.6,7.9c.3.5,0,.9-.5.9h-5.6ZM422.1,628.4c0,.5.5,1,1,1h1.4c.5,0,1.4,0,2-.3,0,0,1.9-.6,1.9-2.3s-.2-1.5-.7-1.9c-.5-.5-1.2-.6-1.2-.6-.5,0-1.4,0-2,0h-1.4c-.5,0-1,.5-1,1v3.2h0Z"/>
                  <path class="cls-8" d="M444,618.4c.5,0,1,.5,1,1v22.9c0,.5-.5,1-1,1h-4.9c-.5,0-1-.5-1-1v-22.9c0-.5.5-1,1-1h4.9Z"/>
                  <path class="cls-8" d="M466.3,639.8c-.7,1.1-1.7,2-3.1,2.7s-3,1-4.9,1c-2.9,0-5.2-.7-7.1-2.1-1.9-1.4-2.8-4.9-2.8-4.9-.1-.5.2-1,.7-1h5.3c.5,0,1.1.4,1.2,1,0,0,.1.5.6,1,.5.4,1,.6,1.7.6s1.1-.2,1.4-.5.5-.7.5-1.3-.3-1.3-1-1.7-1.8-.9-3.2-1.4c-1.6-.5-2.9-1.1-3.9-1.6s-1.9-1.3-2.6-2.3-1.1-2.4-1.1-4,.4-2.9,1.2-4c.8-1.1,1.9-2,3.3-2.5,1.4-.6,3-.9,4.7-.9,2.9,0,5.1.7,6.8,2,1.7,1.3,2.5,4.7,2.5,4.7.1.5-.2,1-.8,1h-5.4c-.5,0-1.1-.4-1.2-1,0,0,0-.4-.5-.8-.4-.4-.9-.6-1.5-.6s-1,0-1.3.4c-.3.3-.5.7-.5,1.3s.3,1.3,1,1.7,1.7.8,3.1,1.3c1.6.6,2.9,1.1,3.9,1.7,1,.5,1.9,1.3,2.7,2.4.7,1,1.1,2.4,1.1,4s-.4,2.6-1.1,3.8h.3Z"/>
                </g>
              </g>
            </g>
          </g>
        </g>
    </g>
  </g>
</g>
</svg>